<?xml version="1.0" encoding="UTF-8"?>
<svg id="Ebene_2" data-name="Ebene 2" xmlns="http://www.w3.org/2000/svg" viewBox="0 0 112.6 112.6">
  <defs>
    <style>
      .cls-1 {
        fill: #000;
      }

      .cls-1, .cls-2 {
        stroke: #000;
        stroke-miterlimit: 10;
      }

      .cls-2 {
        fill: none;
      }
    </style>
  </defs>
  <path class="cls-2" d="M112.1,56.3c0,30.82-24.98,55.8-55.8,55.8-22.73,0-42.29-13.6-50.99-33.1-3.09-6.93-4.81-14.62-4.81-22.7C.5,25.48,25.48.5,56.3.5s55.8,24.98,55.8,55.8Z"/>
  <path class="cls-2" d="M19.54,65.16l-14.23,13.84s9.49-7.25,12.65-6.92-1.45,4.29,1.58,3.89,5.67-4.88,5.67-4.88l-5.67-5.93Z"/>
  <path class="cls-2" d="M35.63,60.15l5.14,5.01-4.48,5.14s-1.32,1.85-2.64,0-1.62-6.09-1.62-6.09l-6.82,6.88,10.42-10.95Z"/>
  <path class="cls-2" d="M40.77,65.16l12.7-13.22,12.53,13.7,11.47,12.89s1.19,2.18-.92,1.25-2.44-1.71-3.36-1.91-1.85-.2-2.37.26-1.12,1.58-1.98,1.88-2.18-.95-2.64-1.61-1.91-4.15-2.18-4.42-.99-.99-1.98-.07-.92,1.71-1.05,1.98-1.16,1.12-1.7.07.32-2.97-1.07-5.47-1.91-3.23-2.37-4.35-1.38-5.41-1.65-7.78-.3-5.6-.3-5.6l12.1,12.89,7.94-3.17,2.47-.99,4.3,3.46,4.2-2.62,18.68,22.17s-1.89.39-2.98-.4-2.13-1.73-4.62-.84-2.7.05-3.36-1.19-1.51-5.14-3.83-5.51-2.18-1.48-2.27-2.82-1.98-11.18-1.98-11.18l-4.8,3.04s-1.58.64-1.48,2.87.59,3.96,1.24,4.8,2.72,3.91,2.72,3.91c0,0,1.24,2.82-1.24.89s-5.74-6.38-5.79-7.07-1.26-8.52-1.26-8.52"/>
  <circle class="cls-1" cx="71.27" cy="45.31" r="5.26"/>
</svg>